<?xml version="1.0" encoding="utf-8"?>
<!-- Generator: Adobe Illustrator 24.0.0, SVG Export Plug-In . SVG Version: 6.00 Build 0)  -->
<svg version="1.1" id="Layer_1" xmlns="http://www.w3.org/2000/svg" xmlns:xlink="http://www.w3.org/1999/xlink" x="0px" y="0px"
	 viewBox="0 0 957.7 431" style="enable-background:new 0 0 957.7 431;" xml:space="preserve">
<style type="text/css">
	.st0{fill:#88441C;}
	.st1{fill:#C68967;}
	.st2{fill:#F6AF85;}
</style>
<title>background</title>
<g>
	<path class="st0" d="M117.4,197.9H78.6H0.9V431h77.7V204.5C90.8,200.2,103.8,197.9,117.4,197.9z"/>
	<path id="svg_9" class="st1" d="M117.4,197.9C53,197.9,0.9,250.1,0.9,314.4c0,50.7,32.4,93.9,77.7,109.9v-44.6v-65.3
		c0-21.5,17.4-38.8,38.8-38.8s38.9,17.4,38.9,38.8v65.3v44.6v6.7H234V314.4C233.9,250.1,181.8,197.9,117.4,197.9L117.4,197.9z"/>
	<path id="svg_12" class="st0" d="M117.4,275.6c-10.7,0-20.4,4.4-27.5,11.4l66.3,66.3v-38.8C156.2,293,138.9,275.6,117.4,275.6
		L117.4,275.6z"/>
	<path id="svg_15" class="st2" d="M117.4,197.9c-32.2,0-61.3,13-82.4,34.1l54.9,54.9c7-7,16.7-11.4,27.5-11.4
		c21.4,0,38.8,17.4,38.8,38.8v38.8l77.7,77.7V314.4C233.9,250.1,181.8,197.9,117.4,197.9L117.4,197.9z"/>
	<polygon id="svg_16" class="st1" points="0.9,197.9 0.9,431 78.6,431 78.6,275.6 	"/>
</g>
<g>
	<path id="svg_17" class="st2" d="M482.5,315c0-64.4-52.2-116.5-116.5-116.5c-32.2,0-61.3,13-82.4,34.1l164.8,164.8
		C469.4,376.3,482.5,347.1,482.5,315z"/>
	<path id="svg_18" class="st1" d="M249.9,314.5c0,64.4,52.2,116.5,116.5,116.5c32.2,0,61.3-13,82.4-34.1L284,232.1
		C262.9,253.2,249.9,282.3,249.9,314.5L249.9,314.5z"/>
	<path id="svg_19" class="st0" d="M405.4,314.9c-0.1-21.3-17.4-38.5-38.7-38.4c-10.6,0-20.3,4.4-27.2,11.4l54.7,54.4
		C401.1,335.2,405.4,325.5,405.4,314.9z"/>
</g>
<path class="st2" d="M215.4,431C215.5,431,215.5,431,215.4,431c0.1,0,0.1,0,0.1,0H215.4z"/>
<g>
	<polygon class="st2" points="957.7,431 741.8,431 741.8,215.5 	"/>
	<path class="st2" d="M894.4,367.5c38.8-39,62.8-92.7,62.8-152C957.2,96.5,860.7,0,741.7,0c-59.5,0-113.3,24.1-152.3,63.1
		L894.4,367.5z"/>
	<path class="st1" d="M729.9,430.7h23.7c55.1-3,104.6-26.6,141.1-63.3l-305-304.5c-39.1,39-63.3,93-63.3,152.6
		C526.2,330.6,616.4,424.5,729.9,430.7z"/>
	<path class="st0" d="M818.1,291.3c19.1-19.3,30.9-45.9,30.9-75.2c0-59-47.9-106.9-106.9-106.9c-29.4,0-56,11.9-75.3,31.1
		L818.1,291.3z"/>
</g>
</svg>
