<?xml version="1.0" encoding="utf-8"?>
<!-- Generator: Adobe Illustrator 24.0.0, SVG Export Plug-In . SVG Version: 6.00 Build 0)  -->
<svg version="1.1" id="Layer_1" xmlns="http://www.w3.org/2000/svg" xmlns:xlink="http://www.w3.org/1999/xlink" x="0px" y="0px"
	 viewBox="0 0 1024 1024" style="enable-background:new 0 0 1024 1024;" xml:space="preserve">
<style type="text/css">
	.st0{fill:#0071B8;}
	.st1{fill:#5EB4FB;}
	.st2{fill:#0275D8;}
	.st3{fill:#0044A7;}
	.st4{fill:#02BEEE;}
	.st5{fill:#0095DE;}
</style>
<g>
	<polygon class="st0" points="1013.8,748 774.4,748 774.4,508.6 	"/>
	<path class="st1" d="M1013.8,508.5c0-132.2-107.2-239.4-239.4-239.4c-66.1,0-125.9,26.8-169.3,70.1l338.6,338.6
		C987,634.5,1013.8,574.6,1013.8,508.5z"/>
	<path class="st2" d="M769.6,747.9h9.5c64.2-1.2,122.3-27.7,164.6-70.1L605.2,339.3C561.8,382.6,535,442.5,535,508.6
		C535,639.3,639.6,745.4,769.6,747.9z"/>
	<path class="st3" d="M873,513.7c-0.2-51.6-42.1-93.4-93.8-93.2c-25.8,0.1-49.2,10.6-66,27.6l132.6,131.8
		C862.7,563,873.1,539.6,873,513.7z"/>
</g>
<g>
	<path class="st4" d="M160.1,474.3c-64.4,0-116.5,52.2-116.5,116.5c0,50.7,32.4,93.9,77.7,109.9v-44.6v-65.3
		c0-21.5,17.4-38.8,38.8-38.8s38.9,17.4,38.9,38.8v65.3v44.6v6.7h77.7V590.8C276.6,526.5,224.5,474.3,160.1,474.3z"/>
	<path class="st4" d="M160.1,474.3c-64.4,0-116.5,52.2-116.5,116.5c0,50.7,32.4,93.9,77.7,109.9v-44.6v-65.3
		c0-21.5,17.4-38.8,38.8-38.8s38.9,17.4,38.9,38.8v65.3v44.6v6.7h77.7V590.8C276.6,526.5,224.5,474.3,160.1,474.3z"/>
	<path class="st2" d="M160.1,474.3c-64.4,0-116.5,52.2-116.5,116.5c0,50.7,32.4,93.9,77.7,109.9v-44.6v-65.3
		c0-21.5,17.4-38.8,38.8-38.8s38.9,17.4,38.9,38.8v65.3v44.6v6.7h77.7V590.8C276.6,526.5,224.5,474.3,160.1,474.3z"/>
	<rect x="43.6" y="474.3" class="st0" width="77.7" height="233.1"/>
	<polygon class="st5" points="43.6,474.3 43.6,707.4 121.3,707.4 121.3,552 	"/>
	<path class="st3" d="M160.1,552c-10.7,0-20.4,4.4-27.5,11.4l66.3,66.3v-38.8C198.9,569.4,181.6,552,160.1,552z"/>
	<path class="st3" d="M77.7,508.4c21.1-21.1,50.2-34.1,82.4-34.1H43.6L77.7,508.4z"/>
	<rect x="43.6" y="474.3" class="st3" width="77.7" height="233.1"/>
	<path class="st1" d="M160.1,474.3c-32.2,0-61.3,13-82.4,34.1l54.9,54.9c7-7,16.7-11.4,27.5-11.4c21.4,0,38.8,17.4,38.8,38.8v38.8
		l77.7,77.7V590.8C276.6,526.5,224.5,474.3,160.1,474.3z"/>
	<polygon class="st2" points="43.6,474.3 43.6,707.4 121.3,707.4 121.3,552 	"/>
	<path class="st1" d="M526.1,591.1c0-64.4-52.2-116.5-116.5-116.5c-32.2,0-61.3,13-82.4,34.1l164.8,164.8
		C513,652.4,526.1,623.2,526.1,591.1z"/>
	<path class="st2" d="M293.5,590.6c0,64.4,52.2,116.5,116.5,116.5c32.2,0,61.3-13,82.4-34.1L327.6,508.2
		C306.5,529.3,293.5,558.4,293.5,590.6z"/>
	<path class="st3" d="M449,591c-0.1-21.3-17.4-38.5-38.7-38.4c-10.6,0-20.3,4.4-27.2,11.4l54.7,54.4C444.7,611.3,449,601.6,449,591z
		"/>
</g>
</svg>
