<?xml version="1.0" encoding="utf-8"?>
<!-- Generator: Adobe Illustrator 23.1.1, SVG Export Plug-In . SVG Version: 6.00 Build 0)  -->
<svg version="1.1" id="Layer_1" xmlns="http://www.w3.org/2000/svg" xmlns:xlink="http://www.w3.org/1999/xlink" x="0px" y="0px"
	 viewBox="0 0 957.7 431" style="enable-background:new 0 0 957.7 431;" xml:space="preserve">
<style type="text/css">
	.st0{fill:none;}
	.st1{fill:#874D30;}
	.st2{fill:#F6AF85;}
	.st3{fill:#C68967;}
	.st4{fill:#88441C;}
	.st5{fill:#02BEEE;}
	.st6{fill:#0071B8;}
	.st7{fill:#0095DE;}
	.st8{fill:#0044A7;}
</style>
<g>
	<title>background</title>
	<rect id="canvas_background" x="-1" class="st0" width="976" height="432.3"/>
</g>
<g>
	<title>Layer 1</title>
	<g id="svg_1">
		<polygon id="svg_2" class="st1" points="957.7,430 718.3,430 718.3,190.6 		"/>
		<path id="svg_3" class="st2" d="M916.8,214.9C916.8,96.2,820.6,0,701.9,0c-59.3,0-113,24.1-152,62.9l304,304
			C892.8,328.1,916.8,274.3,916.8,214.9L916.8,214.9z"/>
		<path id="svg_4" class="st3" d="M697.6,429.9h8.5c57.6-1.1,109.8-24.9,147.8-62.9L550,63c-39,38.9-63,92.7-63,152
			C487,332.4,580.9,427.6,697.6,429.9z"/>
		<path id="svg_5" class="st4" d="M798.2,223.4c-0.2-51.6-42.1-93.4-93.8-93.2c-25.8,0.1-49.2,10.6-66,27.6L771,289.6
			C787.9,272.7,798.3,249.3,798.2,223.4L798.2,223.4z"/>
	</g>
	<g id="svg_6">
		<path id="svg_7" class="st5" d="M116.5,197.9C52.1,197.9,0,250.1,0,314.4c0,50.7,32.4,93.9,77.7,109.9v-44.6v-65.3
			c0-21.5,17.4-38.8,38.8-38.8s38.9,17.4,38.9,38.8v65.3v44.6v6.7h77.7V314.4C233,250.1,180.9,197.9,116.5,197.9L116.5,197.9z"/>
		<path id="svg_8" class="st5" d="M116.5,197.9C52.1,197.9,0,250.1,0,314.4c0,50.7,32.4,93.9,77.7,109.9v-44.6v-65.3
			c0-21.5,17.4-38.8,38.8-38.8s38.9,17.4,38.9,38.8v65.3v44.6v6.7h77.7V314.4C233,250.1,180.9,197.9,116.5,197.9L116.5,197.9z"/>
		<path id="svg_9" class="st3" d="M116.5,197.9C52.1,197.9,0,250.1,0,314.4c0,50.7,32.4,93.9,77.7,109.9v-44.6v-65.3
			c0-21.5,17.4-38.8,38.8-38.8s38.9,17.4,38.9,38.8v65.3v44.6v6.7h77.7V314.4C233,250.1,180.9,197.9,116.5,197.9L116.5,197.9z"/>
		<rect id="svg_10" x="0" y="197.9" class="st6" width="77.7" height="233.1"/>
		<polygon id="svg_11" class="st7" points="0,197.9 0,431 77.7,431 77.7,275.6 		"/>
		<path id="svg_12" class="st4" d="M116.5,275.6c-10.7,0-20.4,4.4-27.5,11.4l66.3,66.3v-38.8C155.3,293,138,275.6,116.5,275.6
			L116.5,275.6z"/>
		<path id="svg_13" class="st8" d="M34.1,232c21.1-21.1,50.2-34.1,82.4-34.1H0C0,197.9,34.1,232,34.1,232z"/>
		<rect id="svg_14" x="0" y="197.9" class="st4" width="77.7" height="233.1"/>
		<path id="svg_15" class="st2" d="M116.5,197.9c-32.2,0-61.3,13-82.4,34.1L89,286.9c7-7,16.7-11.4,27.5-11.4
			c21.4,0,38.8,17.4,38.8,38.8v38.8l77.7,77.7V314.4C233,250.1,180.9,197.9,116.5,197.9L116.5,197.9z"/>
		<polygon id="svg_16" class="st3" points="0,197.9 0,431 77.7,431 77.7,275.6 		"/>
		<path id="svg_17" class="st2" d="M482.5,314.7c0-64.4-52.2-116.5-116.5-116.5c-32.2,0-61.3,13-82.4,34.1l164.8,164.8
			C469.4,376,482.5,346.8,482.5,314.7z"/>
		<path id="svg_18" class="st3" d="M249.9,314.2c0,64.4,52.2,116.5,116.5,116.5c32.2,0,61.3-13,82.4-34.1L284,231.8
			C262.9,252.9,249.9,282,249.9,314.2L249.9,314.2z"/>
		<path id="svg_19" class="st4" d="M405.4,314.6c-0.1-21.3-17.4-38.5-38.7-38.4c-10.6,0-20.3,4.4-27.2,11.4l54.7,54.4
			C401.1,334.9,405.4,325.2,405.4,314.6z"/>
	</g>
</g>
</svg>
