<?xml version="1.0" encoding="utf-8"?>
<!-- Generator: Adobe Illustrator 23.1.1, SVG Export Plug-In . SVG Version: 6.00 Build 0)  -->
<svg version="1.1" id="Layer_1" xmlns="http://www.w3.org/2000/svg" xmlns:xlink="http://www.w3.org/1999/xlink" x="0px" y="0px"
	 viewBox="0 0 808 310.8" style="enable-background:new 0 0 808 310.8;" xml:space="preserve">
<style type="text/css">
	.st0{fill:#02BEEE;}
	.st1{fill:#0275D8;}
	.st2{fill:#0071B8;}
	.st3{fill:#0095DE;}
	.st4{fill:#0044A7;}
	.st5{fill:#5EB4FB;}
</style>
<path class="st0" d="M116.5,38.9C52.2,38.9,0,91.1,0,155.4c0,50.7,32.4,93.9,77.7,109.9v-44.6v-65.3c0-21.5,17.4-38.9,38.9-38.9
	s38.8,17.4,38.8,38.9v65.3v44.6v6.7h77.7V155.4C233.1,91.1,180.9,38.9,116.5,38.9z"/>
<path class="st0" d="M116.5,38.9C52.2,38.9,0,91.1,0,155.4c0,50.7,32.4,93.9,77.7,109.9v-44.6v-65.3c0-21.5,17.4-38.9,38.9-38.9
	s38.8,17.4,38.8,38.9v65.3v44.6v6.7h77.7V155.4C233.1,91.1,180.9,38.9,116.5,38.9z"/>
<path class="st1" d="M116.5,38.9C52.2,38.9,0,91.1,0,155.4c0,50.7,32.4,93.9,77.7,109.9v-44.6v-65.3c0-21.5,17.4-38.9,38.9-38.9
	s38.8,17.4,38.8,38.9v65.3v44.6v6.7h77.7V155.4C233.1,91.1,180.9,38.9,116.5,38.9z"/>
<rect x="0" y="38.9" class="st2" width="77.7" height="233.1"/>
<polygon class="st3" points="0,38.9 0,272 77.7,272 77.7,116.6 "/>
<path class="st4" d="M116.5,116.6c-10.7,0-20.4,4.4-27.5,11.4l66.3,66.3v-38.8C155.4,134,138,116.6,116.5,116.6z"/>
<path class="st4" d="M34.1,73c21.1-21.1,50.2-34.1,82.4-34.1H0L34.1,73z"/>
<rect x="0" y="38.9" class="st4" width="77.7" height="233.1"/>
<path class="st5" d="M116.5,38.9c-32.2,0-61.3,13-82.4,34.1L89.1,128c7-7,16.7-11.4,27.5-11.4c21.4,0,38.8,17.4,38.8,38.8v38.8
	l77.7,77.7V155.4C233.1,91.1,180.9,38.9,116.5,38.9z"/>
<polygon class="st1" points="0,38.9 0,272 77.7,272 77.7,116.6 "/>
<polygon class="st2" points="808,310.8 652.6,310.8 652.6,155.5 "/>
<path class="st5" d="M808,155.4C808,69.6,738.4,0,652.6,0c-42.9,0-81.8,17.4-109.9,45.5l219.8,219.8
	C790.6,237.1,808,198.3,808,155.4z"/>
<path class="st1" d="M649.5,310.8h6.2c41.7-0.8,79.4-18,106.8-45.5L542.8,45.5c-28.1,28.1-45.5,67-45.5,109.9
	C497.2,240.2,565.2,309.1,649.5,310.8z"/>
<path class="st4" d="M716.6,158.8c-0.1-33.5-27.3-60.6-60.9-60.5c-16.8,0-31.9,6.9-42.8,17.9l86.1,85.6
	C709.9,190.7,716.7,175.5,716.6,158.8z"/>
<path class="st5" d="M482.5,155.7c0-64.4-52.2-116.5-116.5-116.5c-32.2,0-61.3,13-82.4,34.1l164.8,164.8
	C469.5,217,482.5,187.8,482.5,155.7z"/>
<path class="st1" d="M249.9,155.2c0,64.4,52.2,116.5,116.5,116.5c32.2,0,61.3-13,82.4-34.1L284,72.8C263,93.9,249.9,123,249.9,155.2
	z"/>
</svg>
