<svg width="974" height="482" xmlns="http://www.w3.org/2000/svg">
 <style type="text/css">.st0{fill:#0071B8;}
	.st1{fill:#5EB4FB;}
	.st2{fill:#0275D8;}
	.st3{fill:#0044A7;}
	.st4{fill:#02BEEE;}
	.st5{fill:#0095DE;}</style>

 <g>
  <title>background</title>
  <rect fill="none" id="canvas_background" height="484" width="976" y="-1" x="-1"/>
 </g>
 <g>
  <title>Layer 1</title>
  <g id="svg_1">
   <polygon id="svg_2" points="971.7999877929688,482 732.4000244140625,482 732.4000244140625,242.60000610351562 " class="st0"/>
   <path id="svg_3" d="m971.8,242.5c0,-132.2 -107.2,-239.4 -239.4,-239.4c-66.1,0 -125.9,26.8 -169.3,70.1l338.6,338.6c43.3,-43.3 70.1,-103.2 70.1,-169.3z" class="st1"/>
   <path id="svg_4" d="m727.6,481.9l9.5,0c64.2,-1.2 122.3,-27.7 164.6,-70.1l-338.5,-338.5c-43.4,43.3 -70.2,103.2 -70.2,169.3c0,130.7 104.6,236.8 234.6,239.3z" class="st2"/>
   <path id="svg_5" d="m831,247.7c-0.2,-51.6 -42.1,-93.4 -93.8,-93.2c-25.8,0.1 -49.2,10.6 -66,27.6l132.6,131.8c16.9,-16.9 27.3,-40.3 27.2,-66.2z" class="st3"/>
  </g>
  <g id="svg_6">
   <path id="svg_7" d="m118.1,208.3c-64.4,0 -116.5,52.2 -116.5,116.5c0,50.7 32.4,93.9 77.7,109.9l0,-44.6l0,-65.3c0,-21.5 17.4,-38.8 38.8,-38.8s38.9,17.4 38.9,38.8l0,65.3l0,44.6l0,6.7l77.7,0l0,-116.6c-0.1,-64.3 -52.2,-116.5 -116.6,-116.5z" class="st4"/>
   <path id="svg_8" d="m118.1,208.3c-64.4,0 -116.5,52.2 -116.5,116.5c0,50.7 32.4,93.9 77.7,109.9l0,-44.6l0,-65.3c0,-21.5 17.4,-38.8 38.8,-38.8s38.9,17.4 38.9,38.8l0,65.3l0,44.6l0,6.7l77.7,0l0,-116.6c-0.1,-64.3 -52.2,-116.5 -116.6,-116.5z" class="st4"/>
   <path id="svg_9" d="m118.1,208.3c-64.4,0 -116.5,52.2 -116.5,116.5c0,50.7 32.4,93.9 77.7,109.9l0,-44.6l0,-65.3c0,-21.5 17.4,-38.8 38.8,-38.8s38.9,17.4 38.9,38.8l0,65.3l0,44.6l0,6.7l77.7,0l0,-116.6c-0.1,-64.3 -52.2,-116.5 -116.6,-116.5z" class="st2"/>
   <rect id="svg_10" height="233.1" width="77.7" class="st0" y="208.3" x="1.6"/>
   <polygon id="svg_11" points="1.5999984741210938,208.29998779296875 1.5999984741210938,441.4000244140625 79.30000305175781,441.4000244140625 79.30000305175781,286 " class="st5"/>
   <path id="svg_12" d="m118.1,286c-10.7,0 -20.4,4.4 -27.5,11.4l66.3,66.3l0,-38.8c0,-21.5 -17.3,-38.9 -38.8,-38.9z" class="st3"/>
   <path id="svg_13" d="m35.7,242.4c21.1,-21.1 50.2,-34.1 82.4,-34.1l-116.5,0l34.1,34.1z" class="st3"/>
   <rect id="svg_14" height="233.1" width="77.7" class="st3" y="208.3" x="1.6"/>
   <path id="svg_15" d="m118.1,208.3c-32.2,0 -61.3,13 -82.4,34.1l54.9,54.9c7,-7 16.7,-11.4 27.5,-11.4c21.4,0 38.8,17.4 38.8,38.8l0,38.8l77.7,77.7l0,-116.4c0,-64.3 -52.1,-116.5 -116.5,-116.5z" class="st1"/>
   <polygon id="svg_16" points="1.5999984741210938,208.29998779296875 1.5999984741210938,441.4000244140625 79.30000305175781,441.4000244140625 79.30000305175781,286 " class="st2"/>
   <path id="svg_17" d="m484.1,325.1c0,-64.4 -52.2,-116.5 -116.5,-116.5c-32.2,0 -61.3,13 -82.4,34.1l164.8,164.8c21,-21.1 34.1,-50.3 34.1,-82.4z" class="st1"/>
   <path id="svg_18" d="m251.5,324.6c0,64.4 52.2,116.5 116.5,116.5c32.2,0 61.3,-13 82.4,-34.1l-164.8,-164.8c-21.1,21.1 -34.1,50.2 -34.1,82.4z" class="st2"/>
   <path id="svg_19" d="m407,325c-0.1,-21.3 -17.4,-38.5 -38.7,-38.4c-10.6,0 -20.3,4.4 -27.2,11.4l54.7,54.4c6.9,-7.1 11.2,-16.8 11.2,-27.4z" class="st3"/>
  </g>
 </g>
</svg>
