<?xml version="1.0" encoding="utf-8"?>
<!-- Generator: Adobe Illustrator 24.0.0, SVG Export Plug-In . SVG Version: 6.00 Build 0)  -->
<svg version="1.1" id="Layer_1" xmlns="http://www.w3.org/2000/svg" xmlns:xlink="http://www.w3.org/1999/xlink" x="0px" y="0px"
	 viewBox="0 0 470.8 430" style="enable-background:new 0 0 470.8 430;" xml:space="preserve">
<style type="text/css">
	.st0{fill:#F6AF85;}
	.st1{fill:#C68967;}
	.st2{fill:#88441C;}
</style>
<g>
	<polygon class="st0" points="451.9,428.9 237.1,428.9 237.1,214.5 	"/>
	<path class="st0" d="M388.9,365.8c38.6-38.8,62.5-92.2,62.5-151.2c0-118.4-96-214.4-214.4-214.4c-59.2,0-112.7,24-151.5,62.8
		L388.9,365.8z"/>
	<path class="st1" d="M225.3,428.6h23.6c54.8-3,104.1-26.5,140.4-63L85.8,62.7c-38.9,38.8-63,92.5-63,151.8
		C22.6,329,112.3,422.5,225.3,428.6z"/>
	<path class="st2" d="M313,289.9c19-19.2,30.7-45.7,30.7-74.8c0-58.7-47.7-106.3-106.3-106.3c-29.2,0-55.7,11.8-74.9,30.9L313,289.9
		z"/>
</g>
</svg>
