<?xml version="1.0" encoding="utf-8"?>
<!-- Generator: Adobe Illustrator 23.1.1, SVG Export Plug-In . SVG Version: 6.00 Build 0)  -->
<svg version="1.1" id="Layer_1" xmlns="http://www.w3.org/2000/svg" xmlns:xlink="http://www.w3.org/1999/xlink" x="0px" y="0px"
	 viewBox="0 0 470.8 430" style="enable-background:new 0 0 470.8 430;" xml:space="preserve">
<style type="text/css">
	.st0{fill:none;}
	.st1{fill:#874D30;}
	.st2{fill:#F6AF85;}
	.st3{fill:#C68967;}
	.st4{fill:#88441C;}
</style>
<g>
	<title>background</title>
	<rect id="canvas_background" x="-488" class="st0" width="976" height="432.3"/>
</g>
<g>
	<title>Layer 1</title>
	<g id="svg_1">
		<polygon id="svg_2" class="st1" points="470.8,430 231.4,430 231.4,190.6 		"/>
		<path id="svg_3" class="st2" d="M429.9,214.9C429.9,96.2,333.6,0,214.9,0c-59.3,0-113,24.1-152,62.9l304,304
			C405.8,328.1,429.9,274.3,429.9,214.9L429.9,214.9z"/>
		<path id="svg_4" class="st3" d="M210.6,429.9h8.5c57.6-1.1,109.8-24.9,147.8-62.9L63,63c-39,38.9-63,92.7-63,152
			C0,332.4,93.9,427.6,210.6,429.9z"/>
		<path id="svg_5" class="st4" d="M311.3,223.4c-0.2-51.6-42.1-93.4-93.8-93.2c-25.8,0.1-49.2,10.6-66,27.6l132.6,131.8
			C301,272.7,311.4,249.3,311.3,223.4L311.3,223.4z"/>
	</g>
</g>
</svg>
