<?xml version="1.0" encoding="utf-8"?>
<!-- Generator: Adobe Illustrator 23.1.1, SVG Export Plug-In . SVG Version: 6.00 Build 0)  -->
<svg version="1.1" id="Layer_1" xmlns="http://www.w3.org/2000/svg" xmlns:xlink="http://www.w3.org/1999/xlink" x="0px" y="0px"
	 viewBox="0 0 310.7 310.8" style="enable-background:new 0 0 310.7 310.8;" xml:space="preserve">
<style type="text/css">
	.st0{fill:#0071B8;}
	.st1{fill:#5EB4FB;}
	.st2{fill:#0275D8;}
	.st3{fill:#0044A7;}
</style>
<polygon class="st0" points="310.7,310.8 155.3,310.8 155.3,155.5 "/>
<path class="st1" d="M310.7,155.4C310.7,69.6,241.1,0,155.3,0C112.4,0,73.5,17.4,45.4,45.5l219.8,219.8
	C293.3,237.1,310.7,198.3,310.7,155.4z"/>
<path class="st2" d="M152.2,310.8h6.2c41.7-0.8,79.4-18,106.8-45.5L45.5,45.5C17.4,73.6,0,112.5,0,155.4
	C-0.1,240.2,67.9,309.1,152.2,310.8z"/>
<path class="st3" d="M219.3,158.8c-0.1-33.5-27.3-60.6-60.9-60.5c-16.8,0-31.9,6.9-42.8,17.9l86.1,85.6
	C212.6,190.7,219.4,175.5,219.3,158.8z"/>
</svg>
